<svg xmlns="http://www.w3.org/2000/svg" data-name="Layer 1" viewBox="0 0 512 512"><path fill="#a2e62e" d="M33.12 266.34H56.7a34.82 34.82 0 0 1 34.82 34.82v23.59H67.93a34.82 34.82 0 0 1-34.82-34.82v-23.59Z"/><path fill="#a2e62e" d="M115.1 354.75H91.51v-23.59a34.82 34.82 0 0 1 34.82-34.82h23.59v23.59a34.82 34.82 0 0 1-34.82 34.82ZM33.12 371.34H56.7a34.82 34.82 0 0 1 34.82 34.82v23.59H67.93a34.82 34.82 0 0 1-34.82-34.82v-23.59Z"/><path fill="#a2e62e" d="M115.1 459.75H91.51v-23.59a34.82 34.82 0 0 1 34.82-34.82h23.59v23.59a34.82 34.82 0 0 1-34.82 34.82ZM197.6 266.34h23.59A34.82 34.82 0 0 1 256 301.16v23.59h-23.59a34.82 34.82 0 0 1-34.82-34.82v-23.59h.01Z"/><path fill="#a2e62e" d="M279.58 354.75H256v-23.59a34.82 34.82 0 0 1 34.82-34.82h23.58v23.59a34.82 34.82 0 0 1-34.82 34.82ZM197.6 371.34h23.59A34.82 34.82 0 0 1 256 406.16v23.59h-23.59a34.82 34.82 0 0 1-34.82-34.82v-23.59h.01Z"/><path fill="#a2e62e" d="M279.58 459.75H256v-23.59a34.82 34.82 0 0 1 34.82-34.82h23.58v23.59a34.82 34.82 0 0 1-34.82 34.82ZM362.08 266.34h23.59a34.82 34.82 0 0 1 34.82 34.82v23.59h-23.6a34.82 34.82 0 0 1-34.82-34.82v-23.59h.01Z"/><path fill="#a2e62e" d="M444.06 354.75h-23.59v-23.59a34.82 34.82 0 0 1 34.82-34.82h23.59v23.59a34.82 34.82 0 0 1-34.82 34.82ZM362.08 371.34h23.59a34.82 34.82 0 0 1 34.82 34.82v23.59h-23.6a34.82 34.82 0 0 1-34.82-34.82v-23.59h.01Z"/><path fill="#a2e62e" d="M444.06 459.75h-23.59v-23.59a34.82 34.82 0 0 1 34.82-34.82h23.59v23.59a34.82 34.82 0 0 1-34.82 34.82Z"/><path fill="#97d729" d="M256 512a7.5 7.5 0 0 1-7.5-7.5V224.65a7.5 7.5 0 1 1 15 0V504.5a7.5 7.5 0 0 1-7.5 7.5zm164.48 0a7.5 7.5 0 0 1-7.5-7.5V235a7.5 7.5 0 0 1 15 0v269.5a7.5 7.5 0 0 1-7.5 7.5zm-328.96 0a7.5 7.5 0 0 1-7.5-7.5V235a7.5 7.5 0 0 1 15 0v269.5a7.5 7.5 0 0 1-7.5 7.5z"/><path fill="#fe3d97" d="M165.37 146.48a4.87 4.87 0 0 1-.05-6.82 35.33 35.33 0 0 0-34.51-58.51 4.87 4.87 0 0 1-5.94-3.36 35.32 35.32 0 0 0-67.87.64 4.87 4.87 0 0 1-5.87 3.46A35.32 35.32 0 0 0 17.66 141a4.87 4.87 0 0 1 .06 6.82 35.33 35.33 0 0 0 34.51 58.51 4.87 4.87 0 0 1 5.94 3.36 35.32 35.32 0 0 0 67.91-.64 4.88 4.88 0 0 1 5.88-3.46 35.32 35.32 0 0 0 33.41-59.13Z"/><circle cx="90.77" cy="140.74" r="18.74" fill="#fedf30"/><path fill="#fe3d97" d="M494.34 146.48a4.87 4.87 0 0 1-.06-6.82 35.33 35.33 0 0 0-34.51-58.51 4.87 4.87 0 0 1-5.94-3.36 35.32 35.32 0 0 0-67.91.64 4.88 4.88 0 0 1-5.92 3.46A35.32 35.32 0 0 0 346.63 141a4.87 4.87 0 0 1 .05 6.82 35.33 35.33 0 0 0 34.51 58.51 4.87 4.87 0 0 1 5.94 3.36 35.32 35.32 0 0 0 67.92-.64 4.87 4.87 0 0 1 5.87-3.46 35.32 35.32 0 0 0 33.42-59.13Z"/><circle cx="419.73" cy="140.74" r="18.74" fill="#fedf30"/><path fill="#e41e7f" d="M368.35 120.23a7.43 7.43 0 0 1-.09-10.38 53.79 53.79 0 0 0 14-27.95 5 5 0 0 1-2.2 0 35.32 35.32 0 0 0-33.43 59.1 4.87 4.87 0 0 1 .05 6.82 35.33 35.33 0 0 0 10.73 56.35 53.74 53.74 0 0 0 10.94-84zm-197.55 68.7a35.32 35.32 0 0 0-5.43-42.45 4.87 4.87 0 0 1-.05-6.82 35.33 35.33 0 0 0-34.51-58.51 4.9 4.9 0 0 1-2.15.07 53.8 53.8 0 0 0 15 30.71 7.41 7.41 0 0 1 .09 10.37 53.74 53.74 0 0 0 9.37 81.84 35.15 35.15 0 0 0 17.68-15.21z"/><path fill="#fe5ca7" d="M343.88 119.32a5.79 5.79 0 0 1-.07-8.11 42 42 0 0 0-41.06-69.62 5.8 5.8 0 0 1-7.06-4 42 42 0 0 0-80.82.75 5.8 5.8 0 0 1-7 4.12 42 42 0 0 0-39.76 70.36 5.8 5.8 0 0 1 .07 8.12 42 42 0 0 0 41.06 69.61 5.79 5.79 0 0 1 7.06 4 42 42 0 0 0 80.82-.76 5.8 5.8 0 0 1 7-4.11 42 42 0 0 0 39.76-70.37Z"/><path fill="#fe3d97" d="M343.88 119.32a5.79 5.79 0 0 1-.07-8.11 42 42 0 0 0-28.23-70.9 42.14 42.14 0 0 1-1.77 55.9 5.79 5.79 0 0 0 .07 8.11 42 42 0 0 1-39.76 70.37 5.8 5.8 0 0 0-7 4.11 42 42 0 0 1-40.51 30.85c-.75 0-1.49 0-2.23-.06a42 42 0 0 0 72.74-15.79 5.8 5.8 0 0 1 7-4.11 42 42 0 0 0 39.76-70.37Z"/><circle cx="255.11" cy="112.49" r="22.3" fill="#fedf30"/><path fill="#d88a55" d="M504.5 512H7.5a7.5 7.5 0 0 1 0-15h497a7.5 7.5 0 0 1 0 15Z"/></svg>